<svg xmlns="http://www.w3.org/2000/svg" width="1200" height="675" viewBox="0 0 1200 675" role="img" aria-labelledby="title desc"><title id="title">Airway RNA-seq dataset discovery</title><desc id="desc">Balanced treatment-by-cell-line design in BioStudies E-GEOD-52778.</desc><rect width="1200" height="675" fill="#0a1524"/><rect x="48" y="42" width="1104" height="590" rx="26" fill="#14283d" stroke="#34536d"/><style>.t{font:700 38px Segoe UI,Arial;fill:#f8fbff}.s{font:18px Segoe UI,Arial;fill:#afc0d1}.h{font:700 17px Segoe UI,Arial;fill:#6fe3cf}.v{font:700 26px Segoe UI,Arial;fill:#fff}.m{font:16px Consolas,monospace;fill:#d1deea}</style><text x="80" y="105" class="t">Airway smooth-muscle RNA-seq</text><text x="80" y="143" class="s">BioStudies / ArrayExpress E-GEOD-52778 · 16 samples · 16 sequencing assays</text><text x="80" y="215" class="h">BALANCED 4 × 4 DESIGN</text><g fill="#1d3b57" stroke="#5d89ad"><rect x="85" y="255" width="235" height="95" rx="16"/><rect x="345" y="255" width="235" height="95" rx="16"/><rect x="605" y="255" width="235" height="95" rx="16"/><rect x="865" y="255" width="235" height="95" rx="16"/></g><text x="202" y="294" text-anchor="middle" class="h">UNTREATED</text><text x="202" y="329" text-anchor="middle" class="v">n = 4</text><text x="462" y="294" text-anchor="middle" class="h">ALBUTEROL</text><text x="462" y="329" text-anchor="middle" class="v">n = 4</text><text x="722" y="294" text-anchor="middle" class="h">DEXAMETHASONE</text><text x="722" y="329" text-anchor="middle" class="v">n = 4</text><text x="982" y="286" text-anchor="middle" class="h">ALBUTEROL +</text><text x="982" y="307" text-anchor="middle" class="h">DEXAMETHASONE</text><text x="982" y="337" text-anchor="middle" class="v">n = 4</text><rect x="85" y="420" width="1015" height="125" rx="20" fill="#19364d"/><text x="115" y="462" class="h">BIOLOGICAL UNITS</text><text x="115" y="504" class="v">4 airway smooth-muscle cell lines</text><text x="115" y="535" class="m">N052611 · N061011 · N080611 · N61311 · one sample per treatment and cell line</text><text x="80" y="602" class="s">Metadata support study planning; reads and differential-expression results are absent from this case.</text></svg>
